<?xml version="1.0" standalone="no"?>
<!DOCTYPE svg PUBLIC "-//W3C//DTD SVG 20010904//EN"
 "http://www.w3.org/TR/2001/REC-SVG-20010904/DTD/svg10.dtd">
<svg version="1.0" xmlns="http://www.w3.org/2000/svg"
 width="1887.000000pt" height="1887.000000pt" viewBox="0 0 1887.000000 1887.000000"
 preserveAspectRatio="xMidYMid meet">
<metadata>
Created by potrace 1.11, written by Peter Selinger 2001-2013
</metadata>
<g transform="translate(0.000000,1887.000000) scale(0.100000,-0.100000)"
fill="#000000" stroke="none">
<path d="M6670 18015 c-47 -7 -119 -19 -160 -25 -45 -8 -206 -13 -405 -15
-310 -2 -337 -4 -445 -27 -63 -14 -141 -37 -172 -52 -67 -32 -168 -129 -218
-210 -133 -216 -216 -319 -353 -434 -101 -85 -191 -191 -312 -367 -123 -178
-180 -298 -224 -469 -27 -102 -30 -379 -6 -505 18 -91 67 -229 94 -263 18 -21
16 -23 -204 -242 -316 -315 -517 -573 -710 -914 -32 -57 -97 -155 -144 -217
-415 -548 -411 -544 -439 -547 -15 -2 -47 0 -72 5 -131 23 -181 26 -261 17
-179 -21 -250 -54 -374 -176 -141 -138 -212 -292 -203 -442 5 -87 34 -154 141
-330 63 -103 68 -131 37 -200 -11 -24 -60 -100 -109 -170 -167 -237 -167 -238
-361 -867 -34 -110 -81 -243 -105 -295 -88 -194 -118 -331 -96 -447 24 -133
95 -274 223 -445 37 -49 70 -93 73 -98 3 -4 -3 -86 -12 -182 -25 -253 -25
-1016 0 -1283 54 -576 150 -1069 308 -1582 64 -209 83 -264 164 -478 198 -523
521 -1138 831 -1583 24 -35 44 -66 44 -70 0 -4 -78 -23 -173 -41 -124 -25
-196 -35 -257 -34 -76 2 -353 37 -491 63 -89 17 -169 11 -344 -26 -138 -29
-211 -38 -385 -49 -118 -7 -216 -13 -217 -14 -1 0 -10 -15 -19 -33 -37 -71 1
-207 91 -333 106 -149 540 -545 735 -671 145 -93 288 -148 477 -183 129 -24
176 -29 393 -41 99 -5 201 -17 255 -30 119 -27 317 -69 380 -80 68 -12 268
-56 332 -74 120 -32 221 -95 443 -276 41 -33 116 -88 165 -122 50 -34 82 -59
73 -55 -9 3 -45 11 -80 17 -35 6 -132 25 -216 41 -144 29 -159 30 -235 20 -99
-14 -201 -39 -367 -91 -69 -21 -167 -50 -219 -65 -121 -35 -250 -93 -382 -171
-108 -64 -137 -88 -121 -98 5 -3 83 1 173 9 313 28 373 21 514 -61 44 -26 98
-57 120 -70 130 -75 361 -75 765 2 101 19 260 22 587 10 235 -9 244 -8 302 13
l60 22 53 -34 c65 -42 161 -91 253 -129 289 -120 856 -317 1350 -470 146 -45
620 -166 790 -202 39 -8 113 -24 165 -36 418 -92 706 -139 1055 -171 207 -20
303 -23 700 -23 406 0 485 3 670 22 360 39 591 80 955 173 178 45 604 171 640
189 8 4 27 10 43 14 22 5 27 3 27 -11 -1 -56 -119 -222 -283 -397 -198 -211
-252 -283 -292 -391 -46 -120 -25 -204 69 -281 76 -63 122 -79 221 -78 50 1
149 12 220 25 115 20 167 23 460 24 291 2 343 5 440 24 138 27 199 47 250 81
82 56 165 151 215 245 68 128 134 203 387 445 43 41 106 111 139 155 278 368
367 606 350 935 -10 183 -47 336 -107 438 l-19 33 219 217 c283 281 494 547
656 822 58 100 79 130 241 350 82 113 199 271 258 352 72 100 115 150 131 154
13 3 60 -1 103 -10 155 -31 341 -14 459 44 80 40 216 173 271 266 64 109 84
182 80 289 -3 81 -7 98 -42 165 -20 41 -64 118 -97 171 -38 61 -59 107 -59
126 0 41 44 120 150 271 146 207 148 212 285 652 119 382 121 388 178 520 58
135 87 247 87 337 0 145 -81 325 -243 537 -25 33 -43 65 -41 70 8 22 34 381
45 620 25 533 -33 1207 -152 1786 -76 369 -208 827 -326 1130 -14 36 -36 92
-49 126 -179 461 -496 1058 -772 1457 -30 43 -53 80 -51 82 2 2 63 16 134 31
162 34 309 36 500 6 400 -64 355 -63 605 -9 133 29 260 43 415 46 61 1 124 6
141 12 43 14 58 52 51 134 -10 128 -92 250 -313 465 -123 120 -370 332 -480
412 -207 151 -472 227 -869 248 -113 6 -227 18 -280 29 -49 11 -144 31 -210
46 -66 14 -142 30 -170 35 -368 66 -491 113 -671 257 -185 148 -222 176 -294
224 -41 28 -66 48 -55 45 11 -3 49 -10 85 -16 36 -6 124 -23 195 -37 188 -37
284 -28 550 52 412 124 418 126 537 186 101 50 248 145 248 159 0 13 -17 13
-227 -6 -177 -16 -275 -14 -344 6 -19 5 -91 42 -160 81 -68 39 -146 79 -174
87 -100 32 -398 17 -603 -29 -121 -27 -297 -39 -431 -29 -363 25 -480 22 -552
-14 -29 -14 -32 -14 -82 18 -169 108 -521 245 -1207 471 -440 145 -732 229
-1010 290 -36 8 -105 24 -155 35 -49 12 -130 30 -180 41 -134 30 -523 106
-580 114 -27 4 -88 13 -135 20 -47 8 -188 24 -315 37 -205 20 -286 22 -735 22
-537 0 -708 -10 -1035 -65 -365 -60 -868 -190 -1244 -320 -154 -54 -164 -56
-110 -21 32 21 60 53 94 108 78 126 144 210 280 354 148 158 206 235 246 328
40 95 40 172 -1 233 -33 49 -77 87 -142 121 -53 28 -162 33 -288 13z m3200
-990 c703 -44 1297 -159 1955 -380 914 -305 1771 -792 2506 -1421 187 -160
409 -374 359 -346 -19 11 -145 82 -280 158 -135 75 -290 164 -345 198 -122 73
-322 176 -342 176 -73 0 311 -240 862 -540 94 -51 198 -108 231 -126 45 -24
89 -64 160 -141 55 -60 101 -110 104 -113 67 -66 328 -392 454 -565 99 -136
99 -133 -22 -134 -47 -1 -91 6 -127 18 -75 27 -198 101 -307 187 -51 40 -94
72 -95 71 -2 -2 106 -262 179 -432 57 -131 136 -223 458 -531 310 -296 426
-459 406 -569 -18 -96 -185 -152 -373 -126 -59 8 -176 42 -353 101 -344 115
-319 109 -509 120 -261 15 -306 36 -370 174 -24 52 -82 140 -162 246 -259 343
-289 404 -314 652 -29 276 -86 436 -263 728 -181 300 -480 659 -706 849 l-39
33 -99 -7 c-55 -3 -122 -6 -151 -6 -52 0 -327 30 -512 56 -105 15 -334 44
-546 70 -746 91 -1121 74 -1924 -86 -227 -45 -329 -73 -571 -154 -568 -190
-1155 -439 -1484 -628 -261 -150 -710 -468 -915 -648 -184 -162 -205 -183
-193 -189 7 -4 64 -11 126 -14 62 -4 152 -13 200 -21 48 -8 152 -19 232 -25
80 -6 183 -15 230 -20 47 -5 141 -14 210 -20 331 -29 542 -81 845 -208 207
-86 359 -189 412 -279 25 -43 28 -57 28 -133 -1 -76 -5 -92 -33 -147 -18 -35
-61 -93 -95 -130 -67 -72 -84 -96 -190 -260 -117 -181 -204 -242 -372 -262
-49 -6 -119 -11 -155 -11 -35 0 -112 -5 -171 -12 -182 -20 -308 10 -453 110
-138 95 -423 260 -591 342 -307 150 -456 201 -805 270 -58 12 -116 24 -130 28
-21 6 -42 -6 -143 -89 -114 -94 -248 -182 -315 -209 -18 -7 -31 -18 -29 -23 2
-6 -43 -74 -99 -150 -173 -232 -191 -296 -134 -467 52 -158 52 -344 1 -480
-29 -77 -104 -166 -186 -222 -84 -57 -132 -73 -291 -97 -67 -10 -130 -24 -141
-32 -11 -8 -66 -66 -123 -129 -234 -261 -341 -369 -456 -460 -297 -238 -541
-372 -969 -532 -228 -86 -328 -111 -450 -111 -117 -1 -164 14 -315 101 -121
70 -182 116 -247 185 -62 65 -61 57 -33 252 129 894 374 1672 780 2470 234
460 455 808 794 1249 186 243 598 680 876 929 768 687 1671 1211 2650 1538
228 76 271 88 550 159 471 119 983 197 1420 216 85 3 157 8 159 10 11 10 524
2 741 -11z m5055 -2266 c197 -75 458 -140 640 -159 93 -10 127 -10 220 4 165
25 314 66 407 112 62 31 68 30 32 -7 -89 -94 -323 -159 -568 -159 -233 0 -584
72 -741 153 -51 26 -149 117 -110 102 11 -4 65 -25 120 -46z m-5744 -3439 c92
-17 171 -63 243 -142 l66 -71 -57 -44 -57 -44 -55 62 c-67 75 -132 109 -209
109 -29 0 -67 -6 -85 -14 -48 -21 -94 -75 -108 -128 -11 -40 -10 -55 4 -101
23 -74 68 -121 226 -242 287 -218 369 -337 359 -515 -8 -141 -91 -259 -226
-323 -63 -30 -74 -32 -177 -32 -104 0 -114 2 -175 32 -74 36 -154 112 -211
199 -22 32 -39 62 -39 66 0 4 26 22 58 41 l57 33 48 -72 c104 -159 229 -208
370 -146 125 55 180 204 120 329 -28 60 -120 150 -296 291 -119 95 -178 149
-203 187 -137 206 -47 456 186 519 67 18 92 19 161 6z m-1711 -587 c0 -569 -5
-650 -39 -728 -45 -103 -140 -163 -268 -172 -125 -9 -220 22 -335 107 l-57 43
17 29 c9 15 26 40 38 55 l21 27 66 -43 c83 -54 171 -91 217 -91 43 0 107 29
137 61 12 13 30 42 40 64 17 37 18 87 21 623 l3 582 69 0 70 0 0 -557z m3970
465 c47 -102 84 -181 185 -398 37 -80 96 -206 130 -280 35 -74 111 -238 170
-365 59 -126 113 -245 121 -262 l14 -33 -75 0 -75 0 -48 103 c-27 56 -77 162
-112 235 l-63 132 -312 0 -313 0 -20 -47 c-23 -53 -177 -379 -191 -403 -6 -11
-29 -16 -85 -18 -42 -2 -76 -1 -76 2 0 5 107 234 210 451 54 112 107 226 165
350 18 39 56 120 85 180 58 122 110 232 170 360 53 114 64 113 120 -7z m5005
-2263 c87 -29 246 -118 333 -188 35 -27 85 -76 111 -109 l48 -59 -14 -102
c-169 -1279 -651 -2477 -1411 -3506 -369 -500 -862 -1009 -1372 -1417 -614
-492 -1347 -909 -2080 -1184 -630 -237 -1235 -377 -1945 -451 -182 -20 -270
-23 -655 -23 -477 -1 -574 3 -860 34 -1272 136 -2475 587 -3526 1320 -250 175
-560 424 -779 625 l-60 55 180 -101 c99 -56 249 -142 333 -191 164 -96 320
-173 331 -163 23 23 -326 240 -859 533 l-165 91 -156 168 c-195 211 -213 230
-339 383 -108 130 -330 423 -330 435 0 4 37 5 82 3 68 -3 95 -9 149 -35 78
-38 179 -105 272 -180 38 -30 70 -53 72 -51 4 3 -69 179 -178 433 -53 124
-135 220 -402 473 -189 179 -328 328 -392 419 -18 26 -42 78 -54 115 -21 67
-21 67 -1 111 17 37 29 49 78 73 57 28 65 29 194 28 153 -1 187 -9 510 -123
233 -83 267 -90 460 -101 254 -14 278 -26 351 -170 29 -56 96 -159 166 -250
226 -299 284 -409 303 -571 27 -240 35 -281 72 -392 78 -238 240 -512 470
-798 135 -169 267 -316 360 -399 l80 -74 187 -7 c181 -7 307 -19 596 -59 640
-87 1071 -130 1314 -130 224 0 626 42 921 96 142 26 371 72 445 89 340 78
1229 416 1656 630 368 185 911 567 1269 893 l64 59 -104 6 c-58 4 -177 16
-265 27 -88 11 -293 31 -455 46 -334 29 -531 55 -640 85 -181 50 -437 148
-577 222 -87 45 -206 147 -240 204 -24 42 -28 58 -27 124 1 103 36 177 135
285 41 44 112 140 158 212 92 147 159 221 235 259 83 42 104 45 546 70 176 9
254 -16 455 -149 319 -210 718 -410 980 -491 70 -22 398 -96 489 -110 25 -4
43 6 116 67 117 98 200 156 293 206 42 23 77 47 77 53 0 7 43 68 95 136 52 69
110 157 130 196 47 95 48 160 3 294 -29 89 -31 106 -31 231 1 119 4 144 26
208 43 121 128 218 244 279 69 36 122 50 260 68 56 7 111 19 121 27 10 7 85
87 167 178 267 297 341 367 553 519 196 140 371 240 549 315 521 218 704 260
878 201z m-8135 -290 l0 -75 160 0 c153 0 160 -1 160 -20 0 -19 -7 -20 -155
-20 -85 0 -155 -3 -155 -6 0 -4 22 -36 49 -73 59 -79 177 -194 246 -241 28
-18 52 -35 54 -37 2 -1 -4 -12 -14 -23 -17 -19 -18 -19 -63 13 -63 43 -213
189 -247 237 -15 22 -32 40 -37 40 -5 0 -7 -51 -6 -112 l3 -113 73 -3 c63 -3
72 -5 72 -22 0 -17 -9 -19 -72 -22 l-73 -3 -3 -72 c-3 -70 -4 -73 -27 -73 -24
0 -25 2 -25 75 l0 75 -75 0 c-68 0 -75 2 -75 20 0 18 7 20 75 20 l75 0 0 115
c0 63 -2 115 -4 115 -2 0 -28 -33 -59 -72 -57 -75 -122 -136 -215 -203 -50
-36 -54 -37 -66 -19 -13 17 -10 22 32 50 102 68 226 204 276 302 l17 32 -151
0 c-143 0 -150 1 -150 20 0 18 8 20 158 22 l157 3 3 73 3 72 29 0 30 0 0 -75z
m1105 15 l29 -60 57 0 57 0 31 55 c30 53 43 61 75 49 13 -5 11 -13 -14 -49
-17 -24 -30 -46 -30 -49 0 -3 27 -6 60 -6 l60 0 0 -65 c0 -63 -1 -65 -25 -65
-22 0 -25 4 -25 40 l0 40 -295 0 -295 0 0 -40 c0 -33 -3 -40 -20 -40 -18 0
-20 7 -20 65 l0 65 60 0 c33 0 60 2 60 4 0 3 -9 21 -21 40 -22 38 -19 56 11
56 13 0 28 -16 45 -50 l25 -50 75 0 75 0 -25 50 c-27 53 -26 70 4 70 11 0 27
-20 46 -60z m1143 -12 l3 -68 139 0 c133 0 140 -1 140 -20 0 -19 -7 -20 -140
-20 l-140 0 0 -95 0 -95 130 0 130 0 0 -25 0 -25 -130 0 -130 0 0 -105 0 -104
158 -3 c154 -3 157 -3 160 -25 l3 -23 -366 0 -366 0 3 23 c3 22 5 22 176 25
l172 2 0 105 0 105 -129 0 -129 0 -4 25 -5 25 134 0 134 0 -3 93 -3 92 -92 3
-91 3 -36 -58 c-19 -32 -46 -71 -58 -86 -21 -25 -25 -26 -42 -14 -18 13 -17
16 21 68 46 62 81 130 108 205 16 44 21 50 41 46 29 -5 30 -23 4 -79 l-19 -43
84 0 85 0 0 71 0 70 28 -3 c26 -3 27 -5 30 -70z m1138 41 c51 -55 174 -148
250 -190 67 -37 72 -42 61 -60 -6 -10 -16 -19 -21 -19 -15 0 -146 79 -196 118
-25 19 -71 60 -102 91 l-58 55 -57 -59 c-69 -70 -179 -152 -250 -188 -47 -24
-52 -25 -65 -10 -9 11 -10 17 -2 20 53 18 259 178 300 233 25 35 34 40 70 40
32 0 46 -6 70 -31z m-4256 -335 l0 -325 -27 3 c-20 2 -28 8 -27 21 2 16 -15
17 -227 17 -222 0 -229 -1 -229 -20 0 -15 -7 -20 -25 -20 l-25 0 0 325 0 325
280 0 280 0 0 -326z m2193 111 c7 -18 -44 -60 -135 -110 -107 -58 -96 -65 97
-65 l165 0 0 -25 0 -25 -165 0 -165 0 0 -99 c0 -92 -2 -101 -22 -115 -25 -18
-158 -23 -158 -7 0 5 -3 16 -6 25 -5 14 3 16 55 16 74 0 81 9 81 109 l0 71
-170 0 -170 0 0 25 0 25 170 0 170 0 0 35 c0 29 4 35 21 35 12 0 49 17 83 38
l61 37 -187 3 c-180 2 -188 3 -188 22 0 19 8 20 229 20 191 0 230 -2 234 -15z
m2207 -5 c0 -19 -7 -20 -205 -20 -198 0 -205 1 -205 20 0 19 7 20 205 20 198
0 205 -1 205 -20z m130 -165 l0 -25 -189 0 -189 0 -60 -95 -61 -94 42 4 c23 2
102 7 176 10 74 3 137 7 139 10 3 2 -14 27 -37 54 l-42 50 26 7 c14 3 27 5 29
3 2 -2 35 -40 75 -83 39 -44 71 -83 71 -87 0 -5 -10 -13 -21 -20 -18 -9 -25
-7 -43 14 l-21 26 -220 -20 c-121 -11 -247 -18 -280 -17 -53 3 -60 5 -63 25
-3 20 1 22 54 25 l57 3 53 85 c30 47 54 88 54 93 0 4 -52 7 -115 7 l-115 0 0
25 0 25 340 0 340 0 0 -25z m-8565 -3985 c146 -23 266 -51 364 -85 116 -39
278 -130 351 -196 l65 -59 -112 61 c-127 68 -194 94 -373 149 -289 89 -505
122 -669 102 -166 -21 -289 -55 -456 -127 l-40 -17 25 27 c39 42 105 84 166
105 52 18 234 54 319 64 68 7 234 -4 360 -24z"/>
<path d="M13710 14956 c0 -4 9 -26 20 -49 21 -45 82 -115 316 -362 157 -167
179 -194 380 -462 86 -114 194 -273 241 -353 47 -80 123 -208 168 -285 46 -77
93 -160 105 -183 34 -68 33 -43 -1 54 -33 96 -54 136 -221 433 -120 214 -141
246 -237 371 -202 262 -379 469 -531 618 -158 156 -240 231 -240 218z"/>
<path d="M15140 13030 c42 -83 258 -278 378 -340 22 -12 56 -24 76 -27 31 -5
36 -3 36 15 0 28 -36 55 -195 147 -109 62 -159 99 -229 165 -88 84 -88 85 -66
40z"/>
<path d="M11346 10928 c-13 -29 -65 -140 -115 -246 -50 -107 -91 -198 -91
-203 0 -5 103 -9 240 -9 132 0 240 2 240 4 0 5 -23 55 -130 281 -26 55 -59
128 -75 163 -15 34 -32 62 -36 62 -5 0 -20 -24 -33 -52z"/>
<path d="M3160 6200 c0 -22 36 -48 230 -160 98 -57 143 -91 208 -156 45 -46
82 -81 82 -77 0 3 -20 36 -45 73 -91 136 -357 340 -445 340 -23 0 -30 -4 -30
-20z"/>
<path d="M3830 5652 c0 -30 54 -171 97 -251 71 -133 191 -348 241 -431 112
-186 437 -587 636 -785 214 -213 265 -260 271 -253 12 12 -39 94 -100 163 -35
39 -133 144 -219 234 -113 119 -210 235 -349 420 -197 260 -246 335 -377 566
-40 72 -82 142 -92 157 -10 14 -38 64 -63 110 -25 46 -45 77 -45 70z"/>
<path d="M6930 8521 c0 -90 3 -110 16 -115 9 -3 110 -6 225 -6 l209 0 0 115 0
115 -225 0 -225 0 0 -109z"/>
<path d="M6930 8240 l0 -120 228 0 227 0 -3 120 -3 120 -225 0 -224 0 0 -120z"/>
</g>
</svg>
